<svg xmlns="http://www.w3.org/2000/svg" viewBox="0 0 336.69 662.94"><defs><style>.cls-1{fill:#1e1e1e;stroke:#b3b3b3;}.cls-1,.cls-3,.cls-5{stroke-miterlimit:10;}.cls-1,.cls-5{stroke-width:2px;}.cls-2{fill:#fff;}.cls-3,.cls-4{fill:#7b7b7b;}.cls-3{stroke:#131313;}.cls-5{fill:none;stroke:#555554;stroke-linecap:round;}.cls-6{fill:#4a4a4a;}.cls-7{fill:#4488c6;}.cls-8{fill:#0c1b2b;}.cls-9{fill:#f5d93d;}.cls-10{fill:#ccb0d4;}.cls-11{fill:#ceb3d6;}.cls-12{fill:#f4d83b;}.cls-13{fill:#f4d93e;}.cls-14{fill:#f5dd45;}.cls-15{fill:#f3d636;}.cls-16{fill:#f4de47;}.cls-17{fill:#f0d433;}.cls-18{fill:#f3dd47;}.cls-19{fill:#efd02c;}.cls-20{fill:#eed12c;}.cls-21{fill:#e1e1e1;}.cls-22{fill:#dcdbdb;}.cls-23{fill:#ebebeb;}.cls-24{fill:#dddddc;}.cls-25{fill:#eaeaea;}.cls-26{fill:#333;}.cls-27{fill:#f2d09c;}.cls-28{fill:#d7d6d6;}.cls-29{fill:#efc68c;}.cls-30{fill:#e6e5e5;}.cls-31{fill:#ccb1d5;}.cls-32{fill:#cdcccc;}.cls-33{fill:#d8bedc;}.cls-34{fill:#d2b8d8;}.cls-35{fill:#d2b7d8;}.cls-36{fill:#d0b6d7;}.cls-37{fill:#dcc4df;}.cls-38{fill:#d6d6d6;}.cls-39{fill:#dec6e0;}.cls-40{fill:#d6bcda;}.cls-41{fill:#e5e5e4;}.cls-42{fill:#dac2de;}.cls-43{fill:#cfb4d7;}.cls-44{fill:#c9acd2;}.cls-45{fill:#c9add3;}.cls-46{fill:#d7bcdb;}.cls-47{fill:#a7a6a1;}.cls-48{fill:#cdb2d6;}.cls-49{fill:#b1a6b4;}.cls-50{fill:#d6bbda;}.cls-51{fill:#dbc2de;}.cls-52{fill:#cbb0d4;}.cls-53{fill:#afa5af;}.cls-54{fill:#aca5aa;}.cls-55{fill:#a9a5a5;}.cls-56{fill:#cfb4d6;}.cls-57{fill:#b6a5be;}.cls-58{fill:#b3a6b8;}.cls-59{fill:#c4a9d0;}.cls-60{fill:#b4a5ba;}.cls-61{fill:#b8a5c1;}.cls-62{fill:#f4db40;}.cls-63{fill:#f3db42;}.cls-64{fill:#f3d93d;}.cls-65{fill:#f2d637;}.cls-66{fill:#f3de4b;}.cls-67{fill:#a7a8a6;}.cls-68{fill:#f2dc46;}.cls-69{fill:#ece1ca;}.cls-70{fill:#f0d536;}.cls-71{fill:#eed332;}.cls-72{fill:#ebcf2d;}.cls-73{fill:#81a954;}.cls-74{fill:#d0d0d0;}.cls-75{fill:#b7b7b7;}.cls-76{fill:#f2d09b;}.cls-77{fill:#070604;}.cls-78{fill:#919090;}.cls-79{fill:#4b4b4b;}.cls-80{fill:#f2dab5;}.cls-81{fill:#f2e1c7;}.cls-82{fill:#ce4f28;}.cls-83{fill:#e5d2ca;}.cls-84{fill:#d37e6f;}.cls-85{fill:#e5ccbe;}.cls-86{fill:#e6cebd;}.cls-87{fill:#c8aa84;}.cls-88{fill:#f0e3ce;}.cls-89{fill:#f1dfc3;}.cls-90{fill:#e1b49f;}.cls-91{fill:#d55928;}.cls-92{fill:#db8657;}.cls-93{fill:#9ba589;}.cls-94{fill:#dfbba3;}.cls-95{fill:#e1bca0;}.cls-96{fill:#ddbaa6;}.cls-97{fill:#dcb9a8;}.cls-98{fill:#d5b6a9;}.cls-99{fill:#e8e0d6;}.cls-100{fill:#9576b0;}.cls-101{fill:#6e6473;}.cls-102{fill:#d3d0d5;}.cls-103{fill:#e2bd9e;}.cls-104{fill:#6f6574;}.cls-105{fill:#e4bf9b;}.cls-106{fill:#86a660;}.cls-107{fill:#7ea750;}.cls-108{fill:#78a747;}.cls-109{fill:#d7d7d7;}.cls-110{fill:#857b8d;}.cls-111{fill:#dec8e1;}.cls-112{fill:#caaed3;}.cls-113{fill:#ddc6e0;}.cls-114{fill:#e3cde4;}.cls-115{fill:#e0c9e2;}.cls-116{fill:#d5bada;}.cls-117{fill:#c3a9d1;}.cls-118{fill:#e1cae2;}.cls-119{fill:#dfc8e1;}.cls-120{fill:#e4cee4;}.cls-121{fill:#e5cfe4;}.cls-122{fill:#e2cce3;}.cls-123{fill:#9da68e;}.cls-124{fill:#9fa593;}.cls-125{fill:#a1a496;}.cls-126{fill:#a3a599;}.cls-127{fill:#a5a89a;}.cls-128{fill:#c7abd2;}.cls-129{fill:#ddc5e0;}.cls-130{fill:#c1a4ce;}.cls-131{fill:#b9a5c4;}.cls-132{fill:#bba5c8;}.cls-133{fill:#d9c0dd;}.cls-134{fill:#f0d8b6;}.cls-135{fill:#727271;}.cls-136{fill:#938a97;}.cls-137{fill:#6e6a4e;}.cls-138{fill:#4e4d4c;}.cls-139{fill:#7a7978;}.cls-140{fill:#504f4c;}.cls-141{fill:#6f6e70;}.cls-142{fill:#e0ccc9;}.cls-143{fill:#efdfc5;}.cls-144{fill:#969695;}.cls-145{fill:#f2e0c5;}.cls-146{fill:#e3d0c9;}.cls-147{fill:#8d8491;}.cls-148{fill:#e3cabe;}.cls-149{fill:#7a7874;}.cls-150{fill:#eed8a0;}.cls-151{fill:#807c78;}.cls-152{fill:#827f7a;}.cls-153{fill:#e4cbbe;}.cls-154{fill:#f0d8b5;}.cls-155{fill:#a79daa;}.cls-156{fill:#e5d1c9;}.cls-157{fill:#716479;}.cls-158{fill:#835ca6;}.cls-159{fill:#835ba6;}.cls-160{fill:#cccacd;}.cls-161{fill:#6c5182;}.cls-162{fill:#6c5181;}.cls-163{fill:#c4c1c5;}.cls-164{fill:#7da64d;}.cls-165{fill:#7fa654;}.cls-166{fill:#85a85d;}.cls-167{fill:#d1d9c8;}.cls-168{fill:#89ab63;}.cls-169{fill:#e6cfe5;}.cls-170{fill:#e3e3e2;}.cls-171{fill:#e5cfe5;}.cls-172{fill:#918692;}.cls-173{fill:#c4aeac;}.cls-174{fill:#9475af;}.cls-175{fill:#9474af;}.cls-176{fill:#6e6374;}</style></defs><title>Asset 1</title><g id="Layer_2" data-name="Layer 2"><g id="Layer_1-2" data-name="Layer 1"><path id="phone" class="cls-1" d="M4.08,626.45V38.1c0-13.36,10.7-25.89,24-27.59C57.75,6.68,111.48,1,168.34,1s110.6,5.68,140.31,9.51c13.25,1.71,24,14.23,24,27.59V626.45c0,8.91-6.84,20.1-15.48,22.26-22.79,5.72-71.27,13.22-148.79,13.22s-126-7.5-148.79-13.22C10.91,646.55,4.08,635.36,4.08,626.45Z"/><polygon class="cls-2" points="18.34 57.32 18.34 587.45 67.29 587.45 280.78 57.32 18.34 57.32"/><polygon class="cls-2" points="318.35 57.32 279.07 57.32 55.9 587.45 318.35 587.45 318.35 57.32"/><circle id="Camera" class="cls-3" cx="167.91" cy="33.73" r="7.92"/><circle id="Mic" class="cls-4" cx="58.07" cy="34.72" r="3.13"/><line id="Left" class="cls-5" x1="1" y1="129.1" x2="1" y2="232.33"/><line id="Right" class="cls-5" x1="335.69" y1="86.36" x2="335.69" y2="129.1"/><path class="cls-6" d="M153.33,157.33c0,6.55-5.17,9.69-12.28,9.69-5.77,0-12.41-3.32-12.41-9.78,0-1.06.28-1.29,1.34-1.29h4.48c1.06,0,1.57.14,1.66,1.29a3.17,3.17,0,0,0,.88,1.89c.92,1.11,2.81,1.52,4.52,1.52,2.49,0,4.52-.55,4.52-3.14s-4.11-2.63-8-3.88c-4.66-1.48-9-3.32-9-9.18s5.45-9,11.21-9.18c5.86,0,12.28,2.68,12.28,8.77,0,1.11-.28,1.29-1.34,1.29h-4.52c-.88,0-1-.65-1.25-1.25a3.8,3.8,0,0,0-1-1.38,6.14,6.14,0,0,0-3.92-1.25c-1.52,0-4.06.6-4.06,2.68,0,2.82,6.78,3.83,8.63,4.57C148.44,149.71,153.33,151,153.33,157.33Z"/><path class="cls-6" d="M180.61,137.3v3.83c0,.83-.28,1.34-1.34,1.34h-7.06V165c0,1.06-.51,1.34-1.34,1.34H166.3c-.83,0-1.34-.28-1.34-1.34V142.46h-7.11c-1.06,0-1.34-.51-1.34-1.34V137.3c0-.83.28-1.34,1.34-1.34h21.41C180.33,136,180.61,136.47,180.61,137.3Z"/><path class="cls-6" d="M209.26,137.3V157c0,7.25-6.74,10-12.23,10s-12.18-2.72-12.18-10V137.3c0-1.06.51-1.34,1.34-1.34h4.57c.83,0,1.34.28,1.34,1.34V156c0,2.91,1.89,4.57,4.94,4.57s5-1.66,5-4.57V137.3c0-1.06.51-1.34,1.34-1.34h4.57C208.75,136,209.26,136.23,209.26,137.3Z"/><path class="cls-6" d="M239.81,146.34v9.6c0,7.25-6.92,10.38-12.41,10.38H217.06c-1.06,0-1.34-.51-1.34-1.34V137.3c0-.83.28-1.34,1.34-1.34H227.4C232.89,136,239.81,139.14,239.81,146.34Zm-7.25.65c0-2.91-2.12-4.61-5.17-4.61H223v17.54h4.43c3,0,5.17-1.66,5.17-4.62Z"/><path class="cls-6" d="M268.61,137.25l-9.51,17.68V165c0,1.06-.51,1.34-1.34,1.34h-4.62c-.88,0-1.34-.28-1.34-1.34V154.93l-9.88-17.68c-.23-.51-.14-1.29.74-1.29H248c1.06,0,1.52.14,2.17,1.38l5.4,9.92,5.21-9.92c.6-1.25,1.06-1.38,2.12-1.38h5C268.74,136,268.84,136.74,268.61,137.25Z"/><path class="cls-6" d="M157.21,180.61v27.74c0,1.06-.51,1.34-1.34,1.34h-4.43c-.83,0-1.34-.28-1.34-1.34V192.7l-4.62,8.08a1.7,1.7,0,0,1-1.34,1h-2.31c-.69,0-1.06-.6-1.29-1l-4.66-8.08v15.64c0,1.06-.51,1.34-1.34,1.34H130c-.83,0-1.34-.28-1.34-1.34V180.61c0-.83.28-1.34,1.34-1.34h4.57c1.57,0,1.75,1,2.12,1.57L143,192.19l6.37-11.35c.32-.55.55-1.57,2.08-1.57h4.43C156.93,179.27,157.21,179.77,157.21,180.61Z"/><path class="cls-7" d="M189.37,209.68h-4.85c-1,0-1.38-.28-1.75-1.38l-1.29-3.65H170.17l-1.29,3.65c-.37,1.11-.74,1.38-1.75,1.38h-4.85c-1,0-1-.74-.78-1.29l10.25-27.64a1.83,1.83,0,0,1,1.89-1.43h4.43c1,0,1.48.46,1.89,1.43l10.2,27.64C190.39,208.94,190.39,209.68,189.37,209.68Zm-10.06-11.49L175.85,188l-3.46,10.2Z"/><path class="cls-7" d="M218.45,209.68H213a2.46,2.46,0,0,1-2.31-1.38l-5-7.43a3.42,3.42,0,0,1-.51-2.35v-3.69c0-.83.28-1.34,1.34-1.34h.92c2.26,0,4.38-1.57,4.38-3.74a3.92,3.92,0,0,0-4.25-3.92h-6.14v22.52c0,1.06-.51,1.34-1.34,1.34h-4.57c-.83,0-1.29-.28-1.29-1.34V180.7c0-.83.23-1.34,1.29-1.34h11.63c5,0,7.25,1,9.18,3a10.05,10.05,0,0,1,2.68,7.25,9.94,9.94,0,0,1-6.41,9.18l6.51,9.46C219.55,208.85,219.32,209.68,218.45,209.68Z"/><path class="cls-6" d="M250.05,180.65l-9.88,27.64c-.55,1.2-.88,1.38-1.89,1.38h-4.43c-1,0-1.34-.18-1.89-1.38L222,180.65c-.23-.6,0-1.34.83-1.34H228c1.2,0,1.52.37,1.89,1.48l6.28,19.11,6.23-19.11c.37-1.11.69-1.48,1.94-1.48h4.89C250.1,179.31,250.29,180.05,250.05,180.65Z"/><path class="cls-6" d="M277.7,204.56v3.78c0,.83-.28,1.34-1.34,1.34H255.68c-1.06,0-1.34-.51-1.34-1.34V180.65c0-.83.28-1.34,1.34-1.34h19.89c1.06,0,1.34.51,1.34,1.34v3.83c0,.83-.28,1.34-1.34,1.34H261.64v5H274c1.06,0,1.34.51,1.34,1.34v3.6c0,.83-.28,1.34-1.34,1.34H261.64v6.09h14.72C277.42,203.22,277.7,203.73,277.7,204.56Z"/><path class="cls-6" d="M305.15,204.56v3.78c0,.83-.28,1.34-1.34,1.34h-19.2c-1.06,0-1.34-.51-1.34-1.34V180.65c0-1.06.51-1.34,1.34-1.34h4.57c.83,0,1.34.28,1.34,1.34v22.57h13.29C304.88,203.22,305.15,203.73,305.15,204.56Z"/><rect class="cls-8" x="46.51" y="134.47" width="58.14" height="40.25"/><rect class="cls-8" x="46.51" y="170.5" width="58.14" height="42.78" rx="5.18" ry="5.18"/><path class="cls-8" d="M82.3,137.21c-1.21-1.46-.65-2.66,1.25-2.66l23.14-.06c1.9,0,2.47,1.19,1.26,2.66L97.35,150A2.75,2.75,0,0,1,93,150Z"/><rect class="cls-2" x="52.5" y="141.75" width="46.1" height="62.51"/><rect class="cls-7" x="52.5" y="162.71" width="46.1" height="41.54"/><circle class="cls-2" cx="77.18" cy="208.56" r="2.48"/><circle class="cls-2" cx="69.93" cy="193.89" r="2.7"/><circle class="cls-2" cx="65.65" cy="182.18" r="4.28"/><circle class="cls-2" cx="74.7" cy="187.47" r="1.99"/><circle class="cls-7" cx="71.92" cy="152.6" r="1.99"/><circle class="cls-7" cx="65.65" cy="159.52" r="3.19"/><rect class="cls-8" x="92.02" y="207.07" width="6.8" height="1.89"/><rect class="cls-8" x="92.02" y="196.72" width="6.8" height="1.89"/><rect class="cls-8" x="92.02" y="186.37" width="6.8" height="1.89"/><rect class="cls-8" x="92.02" y="176.01" width="6.8" height="1.89"/><rect class="cls-8" x="92.02" y="165.66" width="6.8" height="1.89"/><rect class="cls-8" x="92.02" y="155.31" width="6.8" height="1.89"/><path class="cls-9" d="M264.9,291.21a26.41,26.41,0,0,0,2.46,1.42,2.75,2.75,0,0,1,.79.59c-.26.21-.42.63-.85.53-.67-.15-.76.71-1.31.73h-8.74c-.92-.08-1.46-.8-2.31-1.3l3.4-2A12,12,0,0,0,264.9,291.21Z"/><path class="cls-10" d="M212.09,302.5a6.88,6.88,0,0,1-.73-6.56c2-1.72,4.43-1.93,6.92-1.82-.82,1.18-2.63,1.31-3,3a2.78,2.78,0,0,0,.09,2.34C214.35,300.59,212.86,301.15,212.09,302.5Z"/><path class="cls-11" d="M215.37,299.59a3.41,3.41,0,0,1,1.48-4.37c.51-.31,1.26-.33,1.43-1.09a13,13,0,0,1,4.37,1.46l-4.73,3.64C217,299.07,216.28,299.85,215.37,299.59Z"/><path class="cls-12" d="M201.17,298.49a6.82,6.82,0,0,1,2.89,1.46,6.82,6.82,0,0,1-2.89,1.46h-3.64c-.81-.56-1.92-.62-2.52-1.53l2.44-1.49.44-.26C198.91,298.89,200.08,298.3,201.17,298.49Z"/><path class="cls-13" d="M224.47,288.66l1.92,1.3-2.65,1.25h-4c-1.06,0-1.59-1-2.52-1.22a3.44,3.44,0,0,1,1.79-1.33A8.63,8.63,0,0,0,224.47,288.66Z"/><path class="cls-14" d="M264.9,291.21a12.09,12.09,0,0,1-6.56,0c1.82-1,2-3.13,3.1-4.69,1.12.85,1.39,2.25,2.06,3.41C263.81,290.46,263.89,291.39,264.9,291.21Z"/><path class="cls-15" d="M257.25,294.49H266c-1.09.86-2.51,1.38-2.91,2.91a3.63,3.63,0,0,0-2.91,0A7.11,7.11,0,0,0,257.25,294.49Z"/><path class="cls-16" d="M224.47,288.66a8.57,8.57,0,0,1-5.46,0c1.58-.53,1.63-2.34,2.75-3.29C222.73,286.42,222.87,288.15,224.47,288.66Z"/><path class="cls-17" d="M219.74,291.21h4l-2,3.39Z"/><path class="cls-18" d="M201.17,298.49c-1.09-.19-2.26.39-3.28-.36a15,15,0,0,1,1.71-3C199.77,296.48,201.12,297.16,201.17,298.49Z"/><path class="cls-19" d="M197.53,301.41h3.64c-.23,1.24-1.36,2-1.58,3.48Z"/><path class="cls-20" d="M260.16,297.4a3.6,3.6,0,0,1,2.91,0c-.49.88-.73,1.94-1.68,2.51Z"/><path class="cls-21" d="M97,491.51c.55-4.23.67-8.5,1.43-12.71.25-1.36.2-2.8.35-4.21.59-5.44.9-10.9,1.54-16.33.4-3.43.82-6.85,1.06-10.3.3-4.42,1.31-8.57,4.79-11.69a18.61,18.61,0,0,1,6-3.53c4.47-1.68,8.86-3.57,13.31-5.32,2.36-.93,4.75-1.79,7.16-2.55a3.83,3.83,0,0,1,2.57.35c-.28.52-.9.51-1.29.82a2.45,2.45,0,0,0-1.08,2.68,48,48,0,0,1,.56,7,24.19,24.19,0,0,0,.29,4.12,1.47,1.47,0,0,0,1.46,1.44c2.17.32,4.25,1,6.53,1.55a23.63,23.63,0,0,1-3.41,3.93c-1,.84-1.25,1.51-.45,2.79,5.47,8.79,10.68,17.74,16.2,26.5.32.5.84.88,1,1.51-.25,2.58-.06,5.16-.1,7.74a29.94,29.94,0,0,1-.37,6.24h-6.92c0-2.41.17-4.84,0-7.24-.36-4.07-.29-8.14-.33-12.22,0-.95-.32-1.86-.42-2.81-.13-1.3-1.29-.51-2-.61-1-.89-2.39-.58-3.53-.71a67.32,67.32,0,0,0-7.62-.09c-.32,0-.6.06-.71.41-.26,0-.52,0-.61.24a2.57,2.57,0,0,0,0,.9c.23,7.38-.62,14.73-.37,22.11h-6.56c.8-3.34,1.19-6.75,1.82-10.11.72-3.9,1.34-7.82,2-11.73.79-4.53,1.6-9,2.33-13.58.15-1,.72-1.89.17-3.19-1.06,5.08-2.11,9.9-3.06,14.73-1.12,5.71-2.36,11.4-3.51,17.11a53.36,53.36,0,0,0-1.23,6.79h-.36c0-2.74.9-5.33,1.26-8,.17-1.27.72-2.51.37-3.85-.88,4-2.52,7.79-3.09,11.86Z"/><path class="cls-22" d="M154.55,491.51c.72-4.84.22-9.71.36-14.57v-1.18c-.16-.81.36-1.72-.35-2.45a40,40,0,0,0-.69-5.82c-.26-1.47.34-2.93.72-4.33,1.71-6.36,2.94-12.84,4.66-19.19a1.52,1.52,0,0,0-.78-1.84c-1.19-.67-2.12-1.7-3.3-2.36-.74-.41-.78-.84-.13-1.37,1.27-1,2.07-2.5,3.25-3.6a1.45,1.45,0,0,0,.24-2.18c-1.09-1.73-2.54-3.23-3.25-5.2l6.19,3.28a17.82,17.82,0,0,1,7.21,11.76,32.47,32.47,0,0,1,.45,4.81c0,4.21.34,8.41.47,12.62.06,1.84-.35,3.63-.11,5.45,0,.37-.27.88.36,1.06-.26,8.38.61,16.75.36,25.13Z"/><path class="cls-23" d="M144.72,468.56c2.23,0,2.23,0,2.55,3.25a2.73,2.73,0,0,1,0,.36c-.24,6.45.62,12.88.36,19.33H132c0-3.2-.24-6.41.06-9.58.41-4.3.21-8.59.29-12.88,0-.59.08-.93.74-.84a.77.77,0,0,1,.55.19c.77.37,1.58.07,2.37.17Z"/><path class="cls-24" d="M124,491.51c.52-2.88,1-5.77,1.57-8.64.89-4.42,1.89-8.82,2.79-13.23s1.74-8.87,2.62-13.3c.23-1.15.56-2.28,1-3.9.21,2.61-.51,4.6-.84,6.63-.5,3.12-1.09,6.22-1.65,9.33-.72,4-1.31,8-2.1,12.06-.61,3.1-1.08,6.25-1.49,9.39-.08.6-.57,1-.41,1.67Z"/><path class="cls-25" d="M122.14,491.51c.16-2.76,1.44-5.24,1.94-7.91a25.73,25.73,0,0,1,1.21-4c-.09,4.05-1.61,7.91-1.7,12Z"/><path class="cls-26" d="M138.89,413.21c-1.24.84-2.68.47-3.92.3a33.91,33.91,0,0,1-14.38-4.91c-3.71-2.44-6-6-8.29-9.66a77.63,77.63,0,0,1-9.76-22.79c-.89-3.56-1.87-7.48,0-11,2.17-4.09,1.49-8.66,2.81-12.88,2-6.25,5.11-11.55,10.38-15.57a86.08,86.08,0,0,1,15.37-9.16,74.35,74.35,0,0,1,17.5-5.79,39.68,39.68,0,0,1,11.72-.61c9.57,1,16.79,5.75,21.19,14.39a19.89,19.89,0,0,0,6.11,7.29,15.51,15.51,0,0,1,5.39,8.65c1.88,7,.92,13.94-2.06,20.57v-5.93c0-.73,0-1.46,0-2.19.15-.52-.58-.81-.35-1.35.66-.46.47-1,.1-1.5a.82.82,0,0,0-1.26-.09c-.47.35-1.06,0-1.55.25-1.86-5-4.09-9.8-8.23-13.46-1-.88-1.57-1-2.51,0a56.77,56.77,0,0,1-10.43,8.61,12.35,12.35,0,0,1-5.17,2.27c.87-1.72,1.92-3.13,1.66-5.15-9.55,6.16-18.39,13.33-29.56,16.29.84.8.95,2.38,2.33,3-1.26.92-3,.9-4.08,2.19-4.65-.26-9.37,4-10.16,8.45-.89,5,1,8.78,5,11.62a3.34,3.34,0,0,0,1.46.66c2.27.32,3.41,1.79,4.22,3.83C134.31,404.24,136.93,408.57,138.89,413.21Z"/><path class="cls-27" d="M138.89,413.21c-2.41-5-4.89-10-7.18-15.1a3.14,3.14,0,0,0-2.26-2,10.47,10.47,0,0,1-8-9.9A10.67,10.67,0,0,1,132,375a10.37,10.37,0,0,1,4.46.72c.5-.53-.52-1.27.32-1.63,2.31-1,4.15-3.12,7-3-.39,2.15.4,4.12,1.22,6,1,2.28,3.09,3.19,5.51,3.35h9.85a94.64,94.64,0,0,0,9.75-1.09.92.92,0,0,0,.89-1,28,28,0,0,1,0-2.84,1.91,1.91,0,0,1,1.25-1.76c.57.94,1.75.18,2.52,1.05,1.51,1.71,1.23,3.69-.93,4.48-.27.1-.61,0-.67.55,1.69.71,2.38-.75,3.35-1.57a2,2,0,0,0,2.55-.1,11.1,11.1,0,0,0,3.86-.31c.62-.2,1.41.42,1.92-.38a5.42,5.42,0,0,0,3-.35c.82,0,1.65,0,2.47,0A41.72,41.72,0,0,1,182,399.78a38.23,38.23,0,0,1-15.12,12.16,29.7,29.7,0,0,1-12.55,3c-1.7,0-2.34.69-2.32,2,0,2-.66,4-.4,6a6.93,6.93,0,0,0-.73,3.51,8.14,8.14,0,0,0,0,1.17c-1.2,1.79-2.27,3.63-4.66,4.22a10.92,10.92,0,0,1-4.36-.15c-.79,0-.84-.76-1.11-1.24-.63-1.13-1.15-2.3-1.86-3.4s-1.3-2.28-.47-3.62c.16-.26-.05-.42-.32-.48.48-2.74.43-5.55,1-8.28C139.31,414.32,139.72,413.57,138.89,413.21Z"/><path class="cls-28" d="M240.86,450a22.1,22.1,0,0,1,.67,9.15,13.06,13.06,0,0,1-3.83,8.07c-3.31,3.22-7.39,3.57-11.58,3.06-2.29-.28-4.59-.54-6.87-1-3.3-.62-6.66-.85-10-1.39-2.22-.36-4.52-.49-6.77-.83-3.32-.5-6.66-.78-10-1.37-2-.36-4.16-.47-6.23-.78s-4.16-.5-6.25-.74a2.93,2.93,0,0,1-2.16-2.49c-1.21-4.69-2.68-9.3-4-14-1.45-5.08-3.08-10.11-4.39-15.23a77.59,77.59,0,0,1,9.11,2.18c5.76,1.49,11.54,2.91,17.31,4.37,5.05,1.28,10.1,2.59,15.15,3.87a9.2,9.2,0,0,0,1.4.14,4.73,4.73,0,0,0,3.23,6.48,10.56,10.56,0,0,0,3.18.46C226.2,450,233.53,450,240.86,450Z"/><path class="cls-23" d="M138.16,423a2,2,0,0,1,.3.13c-.93,3.67,1.86,5.89,3.34,8.61a46.65,46.65,0,0,0,3.7,7.75c.06,1.53,1,2.76,1.51,4.11a89.81,89.81,0,0,1,4.62,13.42,1.94,1.94,0,0,0,.7,1.27c-.29-1.92.59-3.91-.46-5.79a42.75,42.75,0,0,0-.18-8.24,47.17,47.17,0,0,1-.08-6.34c0-.47.35-1.09-.33-1.43,0-2.25,0-4.51,0-6.76-.22-1,.45-2.14-.36-3.09a7,7,0,0,1,.73-3.64,28.91,28.91,0,0,0,3.64,4.37c.64,1.94,2.09,3.39,3.15,5.07.6,1,.66,1.51-.12,2.3-1.13,1.14-2.12,2.41-3.25,3.56-.63.64-.62,1,.16,1.47,1.17.73,2.26,1.61,3.39,2.41,1.53,1.08.43,2.51.2,3.55-1.54,6.88-3.36,13.69-5,20.55-.3,1.29.29,2.68.44,4,.11,1,.17,2,.27,3s-.39,1.79.36,2.55v1.09c-1.94-2-3-4.5-4.44-6.81q-6-9.81-12-19.65c-.29-.48-.41-1.13-.81-1.47-.94-.78-.42-1.22.18-1.83,1.36-1.41,2.65-2.89,4-4.43-2.53-.35-4.76-1.18-7.12-1.59-1.58-.27-1.31-2.16-1.29-3.33a78.83,78.83,0,0,0-.55-8.58c-.15-1.73-.06-2.76,1.54-3.49.25-.11.8,0,.77-.54Z"/><path class="cls-29" d="M222.65,409.57c.9-5.21,1.51-10.46,2.48-15.67a28.54,28.54,0,0,0,.79-6c0-.69.24-1,.86-1.3.82-.43,1.81-.6,2.42-1.4.57.16.93-.52,1.5-.37,1.88-.77,3.47-2.24,5.65-2.25.26.53.9.79,1,1.5.31-1.31,1.71-1.33,2.41-2.17s1.77-.46,2.49-1.06a1.7,1.7,0,0,0,1.51-.74,3,3,0,0,1,3.19,2.11c.38,1.95-1.12,3.18-3.38,4.07.89,0,1.27.12,1.46,0a1.83,1.83,0,0,1,2.66.29c.72,1,1.32,2.22.48,3.53-.13.2-.41.52-.39.54,1.52,1.47.11,3.32.63,4.92a2.13,2.13,0,0,1-.92,2.4c-1.28,1.05-2.49,2.19-3.73,3.29-.12-.47.32-1.16-.28-1.36a1.11,1.11,0,0,0-1.21.65c-2.22.63-2.76.48-4-1.15-.15-1.08.33-2.16,0-3.24s.57-2.11.07-2.9-1.8-.22-2.72-.41c-1.11-.23-1.29-1.26-1.83-2.12-1.09,1.87-2.32,3.48-3.21,5.31a.58.58,0,0,1-.4.42,5.66,5.66,0,0,0-1,3.73c.08,3.38,0,6.76,0,10.14C227,410.23,224.87,409.58,222.65,409.57Z"/><path class="cls-30" d="M242.32,400.46a1,1,0,0,1,1.17-.66c.63.21.14.91.28,1.38a54.55,54.55,0,0,1-.06,7.45c-.57,4.1,1.32,7.27,3.26,10.52q3.72,6.2,7.34,12.46c2,3.38,3.94,6.74,5.78,10.18s.35,6.74-2.42,7.55a11.77,11.77,0,0,1-3.37.65c-4.48,0-9,0-13.45,0-7.52,0-15,0-22.55,0-2.46,0-4.73-.69-5.88-3.2a4.29,4.29,0,0,1,0-3.7c.91-2.69,2.73-4.9,4-7.42,1-2.07,2.56-3.84,3.32-6.06,2.1-2.79,3.5-6,5.37-8.92.89-1.39,1.62-2.89,2.5-4.3,1.15-1.85,2.05-3.8,1.6-6.08,0-3.7,0-7.39,0-11.09a3.77,3.77,0,0,1,1.46-3.12v14.1a22.81,22.81,0,0,0,.12,3.6,31.33,31.33,0,0,0-2.21,4.05c-.28.08-.49.22-.47.55-2.78,5.09-5.73,10.09-8.68,15.08a.4.4,0,0,0,0,.35c-.37.25-.78.46-.83,1-1.36,2.43-2.7,4.88-4.19,7.24a7,7,0,0,0-.68,2.2c-.3,2.54,1,3.92,3.85,3.92,7.63,0,15.26,0,22.89,0h15.07c3.08,0,4.53-2,3.51-4.92-.79-2.24-2.24-4.13-3.4-6.17q-4.58-8-9.21-15.95c-.52-.88-1.09-1.73-1.54-2.65-.6-1.48-1.68-2.69-2.34-4.13-.56-1.61-.11-3.27-.25-4.89v-9Z"/><path class="cls-31" d="M222.65,295.58h.73c.17.79-.52,1.25-.87,1.69-3.15,3.88-1.6,10.14,2.32,12.82.09.89-.79,1.46-.78,2.32a12,12,0,0,0-.93,4.49c-1.3-.2-2.5-.51-3.13-1.88-.25-.55-.9-.7-1.7-.92,1,3.11,1.46,6-1.29,8.39-1.33-1-1.94-2.68-3.47-3.54-.57-.32-1.51-.37-1.72-1.25a4.27,4.27,0,0,0-.38-4.12A8.5,8.5,0,0,0,207,310c1.45-.76,2.82.47,4.26.17.59-.12,1.18-.07.46-.83.17-.35.64-.3.8-.82a25.28,25.28,0,0,1,5.36-9.19C219.46,298.09,221,296.8,222.65,295.58Z"/><path class="cls-32" d="M169.48,432.51l8.28,28.15a2.2,2.2,0,0,1,.1.5,3,3,0,0,0,2.19,3,62.38,62.38,0,0,1-7.91-1.11c-1.77-.45-2.28,0-2.28,1.84q0,.73,0,1.45c-.57-.08-.34-.51-.36-.83-.13-2,.14-4,.1-6.06-.08-4.43-.34-8.85-.53-13.27-.18-4-.87-8-3.55-11.42a34.76,34.76,0,0,0-4-4.1A27.62,27.62,0,0,1,169.48,432.51Z"/><path class="cls-33" d="M256.52,307.23c.85.12,1.34-.85,2.19-.73.19.79-.55,1.16-.85,1.68-1.37,2.32-1.35,3.42.45,6-1.69,2.31-2.73,4.76-1.79,7.7.19.6-.09,1.08-.8,1.37-2.84,1.15-3.71,2.71-3.46,6-1.31.92-2.29,2-1.91,3.79a2,2,0,0,1-.93-1.58c-.17-1.86-1.24-2.24-2.81-2a13.62,13.62,0,0,0-2.64.1c.56-1.9,1.68-3.68,1.21-5.79a11.62,11.62,0,0,0,4-9.73.78.78,0,0,1,1-.17c1,.51,1.47,0,1.82-.77a14,14,0,0,1,4.52-5.6Z"/><path class="cls-34" d="M244.5,294.49c4.67,1.65,8,4.93,10.52,9,.67,1.09,1.58,2.26,1.5,3.73-1.05-.68-1.84-1.67-2.89-2.38-2.28-1.54-7.74-1.56-9.13.56-1.7-.49-3.05-1.84-4.9-2a12.68,12.68,0,0,0-4.66-.11c-.59-2.35.69-5.3,3.17-6.95a7.84,7.84,0,0,1,4.88-1.53A2.57,2.57,0,0,0,244.5,294.49Z"/><path class="cls-35" d="M193.52,330.9c-2.91-5.17-1.07-13.53,3.64-16.75a4,4,0,0,0,1.27,0c3.3-1.16,5.37.43,7,3a.42.42,0,0,0,.32.14.52.52,0,0,1,.06.52c-2.77,0-5.74,3.19-6.44,6a6,6,0,0,0-.47,1.67c-2.12,0-3.54,1.18-4.34,3.35C194.32,329.55,194.55,330.57,193.52,330.9Z"/><path class="cls-36" d="M244.5,294.49c-1.2.78-2.6.25-3.9.66-2.84.89-6.62,4.71-5.93,8.08-2.35.18-4.24,1.51-6.26,2.5a9,9,0,0,1,1.48-10.58,17.68,17.68,0,0,1,4.05-2.84,23.69,23.69,0,0,1,10.1,1.77C244.28,294.17,244.48,294.2,244.5,294.49Z"/><path class="cls-11" d="M233.94,292.3c-2.06,1.22-4.19,2.46-5.39,4.59a8.82,8.82,0,0,0-.07,8.89,52.93,52.93,0,0,0-3.64,4.37c-4-3-5.63-8.69-2-13.5.25-.33.63-.57.51-1.07,1-1.42,2.73-1.5,4.15-2.05A18.79,18.79,0,0,1,233.94,292.3Z"/><path class="cls-37" d="M269.63,306.14c4.34,1.1,7.56,6.23,7.63,10.23,0,2.1.41,4.3-1.07,6.16-.1-.38-.32-.71-.4-1.12a4.9,4.9,0,0,0-4-4c-.83-3.26-2.79-5.32-6.2-5.83-.32-.76-1-.16-1.47-.39.19-3,1.82-4.56,4.81-4.69C269.26,306.49,269.57,306.55,269.63,306.14Z"/><path class="cls-38" d="M229.21,410.3c.54,3-1.16,5.16-2.53,7.52-2.29,3.94-4.39,8-6.93,11.78.48-4.76.8-9.53,1.41-14.28.21-1.61.3-3.28.36-4.92,0-1,.58-.81,1.14-.83Z"/><path class="cls-39" d="M273.64,326.53a10.71,10.71,0,0,1-9.76,2.72c-.12,2.49-.8,4.78-3.35,6-1.32-.37-2.88-.36-3.33-2.09a1,1,0,0,0,.59-.54c3.06-1,3.79-3.87,1.66-6.44.14-.9-.52-1.63-.57-2.47,1.93-.7,2.75.87,3.82,1.89s1.52,1.06,2.29-.58a6.33,6.33,0,0,0,6.47-4.46c.07-.27,0-.65.48-.44-.06.12-.12.28-.06.33C273.73,322.12,273.77,324.3,273.64,326.53Z"/><path class="cls-40" d="M193.52,330.9c1-.38.81-1.39,1.07-2.14a4.52,4.52,0,0,1,4.39-3.32c.24,1.78.18,3.66,1.72,5,.48,1.77,2.16,2.2,3.43,3.09a4.93,4.93,0,0,0,3,4.54,11.57,11.57,0,0,1,1.68.85,11.05,11.05,0,0,1-7.9-.52C197.56,336.86,194.82,334.55,193.52,330.9Z"/><path class="cls-41" d="M243.78,380.07a1.71,1.71,0,0,1-1.46.73v-1c.23-1.44-.23-2-1.82-1.94-2.53.14-5.08,0-7.62,0-2.21,0-2.21,0-2.21,2.15v4.77l-1.46.36c0-1.76,0-3.51,0-5.27a6.26,6.26,0,0,0-.89-3.66c-1.45-2.27-.55-6.45,2.35-6.74h11.65c2.61.8,4.16,4.45,2.49,6.58A5.81,5.81,0,0,0,243.78,380.07Z"/><path class="cls-42" d="M208.82,338.92c-1.61-1-3.54-1.48-4.34-3.46a3.68,3.68,0,0,1-.4-2c3.44,1,6.18.17,8.31-2.49,2.45.18,3.89-1.44,5.36-3,.29-.3.13-.68.14-1,1.07.68-.13,1.39,0,2.08a7.7,7.7,0,0,1-1.41,4.23c0,.61-.71.75-.78,1.29A10.23,10.23,0,0,1,208.82,338.92Z"/><path class="cls-43" d="M205.9,317.43c-.74-.09-.68-.86-1.06-1.26-1.72-1.85-3.57-3.13-6.26-2a4,4,0,0,1-1.43,0,13.39,13.39,0,0,1,9.47-4H207c3.48,1.15,6.25,4.5,4.73,7.65A23.34,23.34,0,0,0,205.9,317.43Z"/><path class="cls-42" d="M269.63,306.14c-.08.57-.51.35-.83.36a4.49,4.49,0,0,0-4.64,4.74c-2.4.06-4.18,1.35-5.83,2.91-2.12-2.48-1.75-4.09-.25-6.46.24-.38.77-.61.62-1.19a10.91,10.91,0,0,1,8-1.27C267.65,305.4,268.84,305.21,269.63,306.14Z"/><path class="cls-35" d="M256.52,344.74c-.94,3.06-5,6.2-8.11,6.15-1,0-2.21.54-3.18-.33,1.65-.93,3-2.08,3.39-4.08,2.54-.79,3.94-3,3.86-6.07C255.24,340.55,255.8,342.72,256.52,344.74Z"/><path class="cls-35" d="M215.73,348c-1.32-.68-1.61-2-2-3.26a8.92,8.92,0,0,1,.5-6.93c.63.18.56.77.79,1.21.52,1,1,2.22,2.49,2.08.18,2.66,1.93,4.19,3.95,5.54A4.93,4.93,0,0,1,215.73,348Z"/><path class="cls-44" d="M206.63,302.5a9.54,9.54,0,0,1,4.73-6.56c-.35,2-1.28,4,.5,5.78a.94.94,0,0,1,.21.84,7.62,7.62,0,0,0-.61,4.85C208.08,307.56,206.73,305.35,206.63,302.5Z"/><path class="cls-45" d="M230.67,349.48c-.57.08-.73,1-1.46.73,0-.12,0-.27,0-.35,1.4-2,.82-3.81-.36-5.61a7.46,7.46,0,0,0,1-5.48c2.36-.4,4.41,1.58,4.47,4.31v.54c.13,1.12-.66,1.9-1.06,2.83s-1,1.44-1.41,2.23C231.31,348.75,231.19,349.41,230.67,349.48Z"/><path class="cls-46" d="M248.51,346.56c-.18,2.08-1.73,3-3.28,4-1.16.15-1.93-.75-2.91-1.09-.53-.08-.66-.72-1.18-.82a13.08,13.08,0,0,0-1.84-2.3c.06-1-.77-1.71-.62-2.69a3.09,3.09,0,0,1-.08-2.45c.65-.08.94.46,1.12.86a2.7,2.7,0,0,0,2.24,1.57,5.4,5.4,0,0,0,3.73,3A2.9,2.9,0,0,0,248.51,346.56Z"/><path class="cls-47" d="M242.32,369.51H230.67v-3.28h11.65Z"/><path class="cls-48" d="M256.52,344.74c-.24-.67-.46-1.35-.73-2a3.84,3.84,0,0,0-3.28-2.35c-.32-1.4-.67-2.79-2.08-3.55-.06-.54-.84-.63-.78-1.24a4,4,0,0,0,1.67-1.44,6.39,6.39,0,0,0,5.56,2.23,10.84,10.84,0,0,1,.05,7.91C256.85,344.51,256.81,344.72,256.52,344.74Z"/><path class="cls-49" d="M230.67,358.58v-2.91h11.65v2.91Z"/><path class="cls-50" d="M217.56,341.1c-1.59.11-2.09-1.12-2.51-2.25-.18-.48-.27-.86-.77-1,.14-1.26,1.28-1.9,1.82-2.91.49-.11.67-.54.93-.9,2.05-.85,4-2.2,6.4-1.44-1.78.65-2.41,2.2-3,3.8C218.69,337.45,218,339.23,217.56,341.1Z"/><path class="cls-51" d="M256.89,336.37a7.73,7.73,0,0,1-5.83-2.19.92.92,0,0,1-.73-1.09,3.2,3.2,0,0,1,1.82-3.64c1.11,2.67,2.46,3.64,5.1,3.64.3,1.92,2,1.78,3.28,2.19A4.81,4.81,0,0,1,256.89,336.37Z"/><path class="cls-52" d="M228.85,344.38c1.63,1.85,1.39,3.81.36,5.83-2.24,1.43-4.59,2.32-7.28,1.46a4.81,4.81,0,0,0,3.2-5A10.43,10.43,0,0,0,228.85,344.38Z"/><path class="cls-53" d="M230.67,358.58h11.65v2.55H230.67Z"/><path class="cls-54" d="M230.67,361.13h11.65v2.55H230.67Z"/><path class="cls-55" d="M230.67,363.68h11.65v2.55H230.67Z"/><path class="cls-56" d="M225.2,346.56a5,5,0,0,1-3.28,5.1c-2.63-.25-4.83-1.23-6.19-3.64a4.87,4.87,0,0,0,5.83-1.46h.55A3.54,3.54,0,0,0,225.2,346.56Z"/><path class="cls-57" d="M230.67,352.39v-2.19h11.65v2.19Z"/><path class="cls-58" d="M242.32,355.67H230.67v-1.82h11.65Z"/><path class="cls-59" d="M206.63,302.5c.08,3.13,1.54,4.71,4.73,5.1-.18.56.54.9.36,1.46.23.55.87,1.22-.5,1.11a12.66,12.66,0,0,1-2.54-.32c-.44-.13-1.27-.5-1.69.3h-.36c-.13-1.67-.95-3.23-.75-5A5.64,5.64,0,0,1,206.63,302.5Z"/><path class="cls-60" d="M242.32,353.85H230.67v-1.46h11.65Z"/><path class="cls-61" d="M242.32,350.21H230.67v-.73l1.09-.73h9.47l1.09.73Z"/><path class="cls-62" d="M254.7,358.58l2.53,1.26c-.62.86-1.71.82-2.53,1.29-1-.76-2.23-.22-3.34-.35a18.48,18.48,0,0,0-2.12,0,.82.82,0,0,1-1-.54c-.05-.16.38-.56.66-.73.57-.35,1.2-.62,1.8-.92A4.86,4.86,0,0,0,254.7,358.58Z"/><path class="cls-63" d="M267.45,337.1c-.87.06-1.38-.75-2.57-.88,1.88-.78,3.18-1.75,3.72-3.9a6.33,6.33,0,0,0,3.78,3.85l-2.38.93A3.1,3.1,0,0,0,267.45,337.1Z"/><path class="cls-37" d="M273.64,326.53a8.62,8.62,0,0,0-1.82-6.56c0-.36,0-.72,0-1.08,1.77,0,2.47,1.46,3.15,2.7.29.53.57,1.11.86,1.66C275.7,324.75,274.37,325.44,273.64,326.53Z"/><path class="cls-64" d="M210.64,345.11l2.16,1.25c-.91.67-2.09.83-2.88,1.66a1.71,1.71,0,0,0-2.19-.36c-1,0-1.54-1.13-2.57-1.19.58-.82,1.52-.89,2.21-1.36A3.19,3.19,0,0,0,210.64,345.11Z"/><path class="cls-65" d="M249.24,360.77c1.81.24,3.69-.49,5.46.36l-1.46,2.19h-1.46C251.55,361.86,250.11,361.6,249.24,360.77Z"/><path class="cls-66" d="M254.7,358.58a4.78,4.78,0,0,1-4,0l1.64-3.28C253.31,356.29,253.45,357.85,254.7,358.58Z"/><path class="cls-39" d="M275.82,323.26c-.85-1.22-1.12-2.79-2.43-3.75-.51-.37-.91-.74-1.57-.62v-1.46c2.86.5,3.67,2.75,4.37,5.1C276.15,322.81,276.36,323.22,275.82,323.26Z"/><path class="cls-67" d="M191,365.87v6.19c0,.74-.6,1.4-.36,2.19-.69-.21-.23-.78-.37-1.17s.36-1-.33-1.35c-.28-.8.3-1.47.34-2.23-.32-1.15.69-2.2.26-3.36A.45.45,0,0,1,191,365.87Z"/><path class="cls-68" d="M210.64,345.11a3.15,3.15,0,0,1-3.28,0c.87-.61.75-1.85,1.68-2.54A7,7,0,0,0,210.64,345.11Z"/><path class="cls-69" d="M189.88,371.69c1.06.62-.33,1.93.73,2.55,0,1-.63,1.89-.36,2.91h-2.55c.14-.54.84-.39,1.05-.85.43.2.79,0,.74-.39C189.32,374.47,189.87,373.11,189.88,371.69Z"/><path class="cls-70" d="M267.45,337.1a3.07,3.07,0,0,1,2.55,0c-.08.15-.18.29-.25.44-.27.62-.65,1.76-1,1.64A2.24,2.24,0,0,1,267.45,337.1Z"/><path class="cls-71" d="M207.72,347.66a1.7,1.7,0,0,1,2.19.36c.05.87-.75,1.39-.87,2.34C208.7,349.3,207.7,348.74,207.72,347.66Z"/><path class="cls-72" d="M251.79,363.32h1.46c.23.59-.61.83-.5,1.43Z"/><path class="cls-73" d="M216.83,334.18a.92.92,0,0,1-.73.73.31.31,0,0,0-.36-.36l.73-1.09C217,333.49,216.79,333.9,216.83,334.18Z"/><path class="cls-74" d="M144.72,468.56h-9.1c-.61-.82-1.48-.13-2.19-.36h-.36c.05-.41.33-.38.65-.38a84.14,84.14,0,0,1,10.7.38C144.54,468.22,144.62,468.44,144.72,468.56Z"/><path class="cls-75" d="M152.47,480.94c-.94.23-1.14-.69-1.14-1.11a1.18,1.18,0,0,1,1.2-1.06,1.29,1.29,0,0,1,1.27,1.21C153.89,480.89,153.19,481,152.47,480.94Z"/><path class="cls-23" d="M165.48,467.47c1.43-.27,1.86.18,1.88,1.75,0,6,.62,11.93.72,17.9,0,3.08.21,3-3.17,3.69a15,15,0,0,1-6.09,0c-1.06-.2-1.38-.68-1.37-1.74,0-6.61.09-13.23,0-19.84,0-1.58.44-2,1.87-1.76Z"/><path class="cls-74" d="M165.48,467.47h-6.19c0-.75-.9,0-1-.72,2.15,0,4.27,0,6.39,0C165.24,466.72,165.56,466.81,165.48,467.47Z"/><path class="cls-21" d="M154.92,475.85c-.74-.76-.2-1.71-.36-2.55C155.3,474.06,154.75,475,154.92,475.85Z"/><path class="cls-21" d="M133.43,468.2c.72.2,1.56-.4,2.19.36C134.9,468.36,134.05,469,133.43,468.2Z"/><path class="cls-76" d="M136,372.78c-1.44-.62-1.49-2.29-2.59-3.23,3.39-.18,6.22-1.67,9-3.08,6.91-3.45,13.24-7.83,19.56-12.24.38-.26.79-.47,1.27-.76.18,2-.74,3.47-1.79,5.14a10.91,10.91,0,0,0,5.2-2.21,54.43,54.43,0,0,0,10.45-8.63c1-1.1,1.55-.86,2.59,0,3.94,3.41,6,8,8,12.59a2,2,0,0,1,0,.72c-1.63.65-3.39.39-5.08.67-3.63.61-7.3,1-11,1.43-3.38.4-6.75.88-10.14,1.19s-6.71,1.07-10.12,1.08a1.83,1.83,0,0,0-.83.35c-3.79,2-7.77,3.59-11.56,5.58A33.08,33.08,0,0,0,136,372.78Z"/><path class="cls-77" d="M136,372.78c4.93-2.32,9.88-4.59,14.78-7,1.39-.68,2.88-.42,4.27-.57,3.42-.37,6.84-.83,10.24-1.27,4.3-.55,8.61-1,12.9-1.69,2.22-.35,4.5-.62,6.77-.77a8.56,8.56,0,0,0,2.76-.38c.62-.12,1.28.24,1.88-.22a.76.76,0,0,1,1.2.23c.29.48.51,1-.17,1.45-.41-.76-1.11-.18-1.65-.36-2.67.35-5.37.53-8,1a10.9,10.9,0,0,1-1.61,0,48.29,48.29,0,0,1-7.6.72c-.24,0-.28.16-.36.32-1.56-.15-3.06.44-4.61.42h-.62c-1.64.35-3.35.22-5,.73a29.25,29.25,0,0,0-16.68,5c-.24.26-.83-.08-.88.51-2.08,0-3.65,1.24-5.26,2.25-.72.45-2.63.32-1.71,2.22.11.24-.35.26-.67.11a8.85,8.85,0,0,0-4-.58C133,373.72,134.78,373.77,136,372.78Z"/><path class="cls-78" d="M191,365.87h-.36c0-.21.13-.54-.12-.62s-.15.32-.29.42c-.33.24-.16.8-.63.93s-.39-.42-.4-.73a3.52,3.52,0,0,0,1-2.1,2.13,2.13,0,0,1,.77-.07Z"/><path class="cls-79" d="M191,363.68h-.73c-.45-.08-1.18.31-1.09-.66q0-.4,0-.8c.47.19,1.14-.43,1.46.36C190.42,363.05,190.91,363.3,191,363.68Z"/><path class="cls-80" d="M170.94,378.25c0,1.94-1.83,1.21-2.56,1.36a65.19,65.19,0,0,1-8,.82c.46-2.32,1.6-4.4,2.4-6.6.5-1.38,1.31-2.67,1.35-4.2-.22-.66.31-.42.58-.49a4.93,4.93,0,0,0,2.72-.5c-.4-.7-1.34-.47-1.9-.94a.45.45,0,0,1-.45-.15c.44-.41.49-1.11,1.06-1.43a7.81,7.81,0,0,0,2.08.11h.54c-.14.84.83,1.07.91,1.94a16.87,16.87,0,0,0,1.45-2.42c.61.07,1.28.4,1.74-.33a3.38,3.38,0,0,0,3.09-.75c.59-.57,1.35-.18,2-.28s.48.6.7.91c-.23.15-.47.29-.52.59-.91,0-1.29.83-2.11,1.18.52.39.94.16,1.32.23,2.2-.16.86,1.53,1.22,2.34a2.6,2.6,0,0,0,.06.83,22.93,22.93,0,0,0-2.19,4.76c-.69-.31-.92-1-1.22-1.58-.91-.84-3.09-1.22-3.93-.69-1,.63-1.52,2.89-.95,4.46C170.47,377.71,170.47,378.18,170.94,378.25Z"/><path class="cls-80" d="M143.63,371c0-.54.44-.33.73-.36,1.55-.11,2.91-.89,4.38-1.29,1.31-.35,2.53-1.09,4-.9a1.29,1.29,0,0,0,1-.33,7.15,7.15,0,0,1,5.18-1.49c.56,0,1-.46,1.57-.35a4.29,4.29,0,0,0,.53-.11c-.05.86-1.07,1.31-1,2.24.1.6-.81.23-.75.79-.9.31-1,.83-.39,1.53-1.77,2.84-3.27,5.84-5,8.8-.9-3.07-1.27-6.2-2.16-9.24.07,2.48.14,5,.43,7.42.15,1.3.41,2-1.16,2.18-.24,0-.74.11-.82.57-4-.71-5-2-6.2-6A10.11,10.11,0,0,1,143.63,371Z"/><path class="cls-81" d="M150.18,380.43c2.19-.57,2.08-2,1.93-3.93-.17-2.16-.63-4.33-.26-6.56L153.8,380l5.13-9.8c.07-.4.36-.4.67-.36,1.5.11,2.92-.63,4.43-.37.29,1.64-.76,2.91-1.26,4.32a62.13,62.13,0,0,0-2.38,6.61Z"/><path class="cls-82" d="M145.45,439.43a46.14,46.14,0,0,1-3.64-7.65c2.41.53,4.67.62,6.85-1,1.11-.84,1.28-2.17,2.26-3,.19.59-.41,1.35.36,1.82v6.92c0,2.66-.24,2.9-2.94,2.91Z"/><path class="cls-83" d="M183,377.88a12.9,12.9,0,0,1-4,.36c-.82-.93-.15-2-.36-3a3,3,0,0,0-.06-.85,35.43,35.43,0,0,0,3-5.62,4.41,4.41,0,0,1,1.95-2.2,11.9,11.9,0,0,0,2,.06,2.78,2.78,0,0,0,1.86.33A85.22,85.22,0,0,1,183,377.88Z"/><path class="cls-84" d="M167.08,395a10.14,10.14,0,0,1-8.81-4.93c-.38-.57-.95-1.42.08-1.93s1.13.4,1.49,1c2.18,3.59,6,5,10.55,3.59.63-.19,1.31-.62,1.59.09s-.2,1.17-1.14,1.52A10.4,10.4,0,0,1,167.08,395Z"/><path class="cls-85" d="M183,377.88A109,109,0,0,0,187.33,367c.39-.9,1.21-1.65,1-2.76a.48.48,0,0,1,.49-.08c-.34.66.45,1.12.31,1.75,0,.28-.18.7.36.73a6.5,6.5,0,0,1,0,.73,1.38,1.38,0,0,1-.48-.1,46.29,46.29,0,0,0-3.84,8.06c-.29.68-1.28,1.26-.65,2.23h.26C184.31,378.35,183.54,377.66,183,377.88Z"/><path class="cls-86" d="M188.42,376.43c.09.58-.82.15-.73.73-.91.65-1.94.26-2.91.36,1.37-2.65,2.52-5.39,3.76-8.1.1-.22-.07,0,.12-.1s.25.14.22.33C188.88,371.93,188.28,374.15,188.42,376.43Z"/><path class="cls-87" d="M175.31,373.88l1.09,1.46v.48c0,.65.33,1.3,0,1.95q0,.24,0,.48c-.69.89-1.33,1.86-2.66,1.82-.24,0-.51,0-.58-.26s0-.43.36-.47a2.3,2.3,0,0,0,2.1-3.12,2.48,2.48,0,0,0-2.93-2c-.07,0-.19-.24-.29-.37C173.37,372.88,174.34,373.86,175.31,373.88Z"/><path class="cls-88" d="M175.31,373.88c-1-.06-1.94-.92-2.91,0-1.18.05-1.33,1-1.43,1.82a22.23,22.23,0,0,0,0,2.55c-1.23-1.39-1-3-.34-4.45S174,372.35,175.31,373.88Z"/><path class="cls-89" d="M176.4,378.25v-.36c.89.06.78-.77,1.13-1.21s.4-1.33,1.06-1.7c.19,1.08-.39,2.26.36,3.28A2,2,0,0,1,176.4,378.25Z"/><path class="cls-90" d="M151.28,429.6c-.83-.47-.14-1.24-.36-1.82v-1.09C151.76,427.56,151,428.64,151.28,429.6Z"/><path class="cls-91" d="M145.45,439.43c1.07,0,2.14,0,3.21,0,2.35,0,2.62-.34,2.62-2.91.41.05.39.33.37.65-.25,5.25.61,10.48.35,15.74-.2,1.33.44,2.73-.36,4a98.46,98.46,0,0,0-6-16.29A3.85,3.85,0,0,1,145.45,439.43Z"/><path class="cls-92" d="M151.64,456.91c.86-1.27.13-2.68.36-4,.88,1.88,0,3.86.19,5.83Z"/><path class="cls-93" d="M230.67,384.8v-4.73h11.65v.73c-.76.56-1.87.33-2.55,1.09-1.18-.16-2.1.89-3.28.73C234.19,382.39,232.62,384.1,230.67,384.8Z"/><path class="cls-94" d="M230.67,399.73v-3.64h7.65v3.28c-.32.69-.94.33-1.4.34C234.83,399.76,232.75,399.73,230.67,399.73Z"/><path class="cls-95" d="M230.67,399.73h6.82c.33,0,.74.2.82-.36,1,1.59,2.39,1.75,4,1.09v1.82H230.67Z"/><path class="cls-96" d="M238.31,396.09h-7.65c.66-2,2.27-3.48,3.21-5.79.39,2.47,1.95,2.66,3.75,2.54.65,0,1.31.1.85,1.15A6.5,6.5,0,0,0,238.31,396.09Z"/><path class="cls-97" d="M242.32,387.35c-.93.37-1.86.77-2.81,1.09a.84.84,0,0,1-1.06-.44c-.11-.24-.21-.64-.09-.81.3-.42.53.16.82.21,1.19.22,2.07-.64,3.14-.78Z"/><path class="cls-98" d="M236.49,382.62c1.19.18,2.09-.91,3.28-.73-.7.81-2.11.84-2.38,2.19C237.36,383.4,236.65,383.18,236.49,382.62Z"/><path class="cls-99" d="M242.32,387.35v-.73a1.15,1.15,0,0,1,1.35-.61c.07,0,.15.35.09.47A1.47,1.47,0,0,1,242.32,387.35Z"/><path class="cls-100" d="M219.38,434c1.69-3.58,3.85-6.89,5.78-10.34,1-1.77,2-3.55,3-5.32,3-.07,5.91.15,8.86-.12.67.54-.28,1.6.67,2.05-.14,3.09.66,6.08.93,9.13.2,2.29.57,4.56.81,6.84.29,2.76.61,5.52,1,8.26.19,1.22.12,2.48.44,3.7-7.86,0-15.71,0-23.57,0-2.59,0-4.46-2.23-3.38-4.38a4.42,4.42,0,0,1,2.57.46c1.31.49,1.85.36,1.93-1.1.14-2.4.82-4.75.5-7.18C219.75,435.46,219.23,434.64,219.38,434Z"/><path class="cls-101" d="M240.86,448.17c-.51-4.27-1-8.54-1.52-12.81-.58-5.07-1.39-10.13-1.76-15.23,1.43,0,2.85,0,4.28,0,.68-.2.82.36,1,.77,2.47,4.77,5.1,9.45,7.64,14.18,1,1.91,2.14,3.79,3,5.76.18.39.52.67.72,1a.82.82,0,0,0,1.23.34c.5-.29.21-.75,0-1.11-1.13-1.93-2-4-3.15-5.91-1.84-3.17-3.54-6.42-5.3-9.64a64.37,64.37,0,0,1-3.36-6.32c-.14-.33-.43-.6-.23-1a8.28,8.28,0,0,0,1.38.05c3.6,6.22,7.29,12.38,10.76,18.67,1.25,2.26,2.9,4.32,3.66,6.85a3.32,3.32,0,0,1-3.17,4.33C251,448.18,245.95,448.17,240.86,448.17Z"/><path class="cls-102" d="M237.22,418.31h-9.1a.31.31,0,0,1,.36-.36,9.24,9.24,0,0,1,1.24,0c.81.11,1-.23,1-1s0-1.77,0-2.66v-4c.76.56,1.65.32,2.49.36h1.16c.49.77,1.25.16,1.84.37,1,.78-.32,2.1.68,2.88.08,1.37-.16,2.77.38,4.09Z"/><path class="cls-103" d="M230.67,402.28h11.65v.36c-.85.47-1.37,1.33-2.2,1.83-.63.13-.69.69-.85,1.16-.78-.16-1,.6-1.42.94s-.79,1-1.53.79c-1.89,0-3.78,0-5.66,0Z"/><path class="cls-104" d="M219,435.79a64.63,64.63,0,0,1-.68,7.85c-.14,1.24-.74.95-1.4.77a9.12,9.12,0,0,0-3-.61c-.06-1.74,1.36-2.81,2-4.26a44.35,44.35,0,0,1,2.76-4.85C219.36,434.86,218.87,435.43,219,435.79Z"/><path class="cls-105" d="M230.67,407.38h6.19c-.55.66-1.44.88-2,1.58-.85.28-2.11.16-1.69,1.7-.86-.06-1.77.22-2.55-.36Z"/><path class="cls-106" d="M240.13,404.47l2.19-1.82v6.92a6.4,6.4,0,0,1-1.51-.08,30.44,30.44,0,0,0,0-4.52C240.5,404.88,240.18,404.86,240.13,404.47Z"/><path class="cls-107" d="M240.86,409.57h1.46c.18,1.7-.39,3.44.36,5.1-.77,0,0,1.15-.8,1.09a4.61,4.61,0,0,1-1-2.21Q240.86,411.55,240.86,409.57Z"/><path class="cls-108" d="M242,415.76c.81,0-.08-1.11.73-1.09l2.19,3.64h-1.46a.82.82,0,0,1-.47-.13C242.73,417.33,242,416.69,242,415.76Z"/><path class="cls-109" d="M230.67,414.3a7.59,7.59,0,0,0,0,1.42c.36,1.85-.35,2.58-2.2,2.22A13.32,13.32,0,0,1,230.67,414.3Z"/><path class="cls-110" d="M219,435.79c-.16-.35.37-.93-.36-1.09a.92.92,0,0,1,.73-.73C219.15,434.55,219.84,435.32,219,435.79Z"/><path class="cls-37" d="M245.23,323.62a9.85,9.85,0,0,1-1.46,5.83,13.8,13.8,0,0,0-6,3.35,15.1,15.1,0,0,1-8-2.92c-.23-.16-.38-.48-.75-.32-1-1.27-2.46-2.13-3.23-3.61a15.25,15.25,0,0,1-2.84-8.89,13.3,13.3,0,0,1,1.09-4.73c.42,1.93.46,4,1.88,5.58,1,1.05,2,2,3.56,2.05a8.87,8.87,0,0,0,7.39,5.91c2.85.85,5.26-.24,7.58-1.73C244.77,324,244.9,323.67,245.23,323.62Z"/><path class="cls-111" d="M229.57,320c-2.81-.29-4.68-2.93-5.1-5.57-.11-.69-.24-1.38-.36-2.07-.12-.85.85-1.34.73-2.19l3.64-4.37c1.94-1.14,3.87-2.33,6.19-2.55,1.69.23,3.45-.45,5.1.36a10.73,10.73,0,0,0-4,1.48,5.92,5.92,0,0,0-2.9,5.71c.05.72,0,1.45,0,2.17C230.61,314.76,229.27,317,229.57,320Z"/><path class="cls-112" d="M223,317.07a16.2,16.2,0,0,0,2.91,9.1c-1.92.55-3.91.93-5.56,2.19a3.11,3.11,0,0,1-2.45.72c-.18-.73,1-1.46,0-2.19.17-1.59-.6-2.95-1.09-4.37,3-2.29,2.46-5.27,1.33-8.65C220.15,314.85,221,316.85,223,317.07Z"/><path class="cls-113" d="M216.83,322.53a9.5,9.5,0,0,1,1.09,4.37c-.3,2.14-2.86,4-5.46,4,.31-.91,1.11-1.63,1.09-2.67a6.35,6.35,0,0,0-2.27-6c-.55-.46-1.2-.62-1.72-1.05,0-1.28-.88-1.83-2-2.32-.58-.26-1.33-.37-1.7-1v-.36a23.09,23.09,0,0,1,5.83.36C213.69,319.09,215.63,320.41,216.83,322.53Z"/><path class="cls-113" d="M211.73,309.05l-.36-1.46c0-1.73-.22-3.5.73-5.1.79-1.31,2.18-1.95,3.28-2.91.91.28,1.66-.53,2.55-.36-2.36,2.86-4.58,5.81-5.44,9.53C212.38,309.14,212,309,211.73,309.05Z"/><path class="cls-114" d="M245.23,323.62a10.94,10.94,0,0,1-7.73,2.56c-.32,0-.59,0-.64-.38,4.94-.66,7.27-4.54,5.79-8.79-.93-2.66-4.14-4.45-7.51-4.26,2.13-.65,2.7-3.13,4.88-3.91a6.34,6.34,0,0,1,7.5,1.92c.23.29.48.56.9.41.76.71.16,1.85.81,2.6A12,12,0,0,1,245.23,323.62Z"/><path class="cls-115" d="M257.25,333.09a4.82,4.82,0,0,1-5.1-3.64c-.19-2.95.53-5.32,3.76-6.21a1,1,0,0,0,.59-1.33c-1-3,.14-5.42,1.83-7.75,1.64-1.58,3.43-2.85,5.83-2.91.47.19,1.14-.43,1.46.36a3.88,3.88,0,0,0-3.5,3c-.26.94-1.17,1.32-1.6,2.12a5.45,5.45,0,0,0,3.23,8c.38.13.76.29,1.15.42-.68,1.63-1,1.71-2.16.57-2.06-2-2.06-2-3.9-2,.09.87.73,1.62.6,2.53-2.65-1.45-3.7-.73-4.75.56a2.85,2.85,0,0,0-.23,3.42c.69,1.38,1.39,2.59,3.16,2.58A.31.31,0,0,1,257.25,333.09Z"/><path class="cls-116" d="M249.24,313.79c-.65-.73-.08-1.81-.73-2.55a9.57,9.57,0,0,0-2.72-4.38c-.45-.46-1-.8-1.28-1.45,1.46-1.73,3.48-1.63,5.44-1.64,2.79,0,4.65,1.79,6.57,3.46a18.93,18.93,0,0,0-4.77,6.18C251.21,314.64,250.08,313.66,249.24,313.79Z"/><path class="cls-117" d="M237.95,332.73c1.57-1.75,3.69-2.54,5.83-3.28h2.91c-1.41.95-3.1,1.6-3.46,3.6-.11.61-.38,1.18.07,1.75-1.52.9-2.48,2.47-4,3.38-1.1-1.26-1.79-2.6-1-4.32a1.14,1.14,0,0,0-.07-1Z"/><path class="cls-44" d="M243.41,334.91a3.76,3.76,0,0,1,1.5-4.38c.58-.38,1.38-.41,1.78-1.08,1.33,0,2.64-.17,2.6,1.89a2.31,2.31,0,0,0,1,1.75.91.91,0,0,0,.73,1.09c0,1-1,1-1.46,1.46A9.55,9.55,0,0,0,243.41,334.91Z"/><path class="cls-118" d="M244.5,305.41c1.46,1.86,3.48,3.32,4,5.83-1.29.08-1.42-1.3-2.28-1.86a6.32,6.32,0,0,0-9,2c-.56.94-1.61.71-2.23,1.34-.79-.22-1.44.32-2.19.36a24.3,24.3,0,0,1,.16-4.28c.57-2.71,2.7-4,5.12-4.77.5-.16,1-.58,1.64-.42C241.65,303.42,242.8,305.12,244.5,305.41Z"/><path class="cls-119" d="M205.9,317.79c1,1.16,2.94.94,3.51,2.6a4.79,4.79,0,0,1,.13.67c-3.2,0-3.95.51-4.69,3.21a19.82,19.82,0,0,0-1.94,1.49c-1.16.82-2.15,1.87-1.78,3.57.08.34.38,1-.33,1.19-1.66-1.32-1.57-3.27-1.82-5.1a9.46,9.46,0,0,1,4.53-6.9A4.29,4.29,0,0,1,205.9,317.79Z"/><path class="cls-120" d="M264.9,325.08c-2.19-.81-4.31-1.63-4.89-4.32-.23-1.07-.46-2.15.19-3,1.65-2.18,1.89-5.64,5.43-6.14,3.43.49,5.35,2.59,6.19,5.83V320c-1,2.34-2.29,4.3-5,4.91C266.13,325,265.52,325,264.9,325.08Z"/><path class="cls-121" d="M257.62,332.73c-2.52,0-2.95-2.1-3.59-3.75-.5-1.28.59-2.3,1.55-3.11a2.58,2.58,0,0,1,2.78-.19c.37.14.72.32,1.09.49C261.63,328.88,260.84,331.73,257.62,332.73Z"/><path class="cls-122" d="M200.8,330.54c.13-.1.37-.22.36-.29-.57-2.57.83-4.08,2.83-5.27a8.71,8.71,0,0,0,.82-.63c-.34,2,.92,3.49,1.92,5,1.25,1.86,3.95,1.44,5.35.32.51-.41.82-1,1.47-1.29,0,1-.81,1.66-1.09,2.55-1.44,2.47-5.11,3.61-8.38,2.55C202.85,332.64,201.21,332.29,200.8,330.54Z"/><path class="cls-123" d="M242.32,380.07H230.67c-.31-1.7.21-2.4,2.11-2.24a44.61,44.61,0,0,0,7.43,0C242.11,377.67,242.63,378.36,242.32,380.07Z"/><path class="cls-124" d="M230.67,376.43a1.94,1.94,0,0,1-1.09-1.09c0-.49-.21-1.11.7-1.1q4.68,0,9.36,0a.94.94,0,0,1,.83.6,5.36,5.36,0,0,1,0,1.34c-1.62.56-3.29.16-4.93.24S232.29,376.43,230.67,376.43Z"/><path class="cls-125" d="M240.5,375c-.21-.74-.77-.74-1.41-.74-2.84,0-5.67.06-8.5,0-1,0-1.13.34-1,1.12a2.62,2.62,0,0,1,0-2.91H240C241.55,373,241.69,373.7,240.5,375Z"/><path class="cls-126" d="M240.5,372.42H229.57c.11-1.21.88-1.48,2-1.47,3.11,0,6.22,0,9.33,0a.88.88,0,0,1-.11.46C240.17,371.63,240.64,372.1,240.5,372.42Z"/><path class="cls-127" d="M240.86,371.33V371c2.22,0,2.92.7,2.91,2.94a2.68,2.68,0,0,1-3,2.89c-3,0-6.07,0-9.1,0-.34,0-.89.35-1-.35,2.94,0,5.88,0,8.83,0,.34,0,.88.35,1-.35,1.56.24,2.1-.64,2.18-2C242.8,372.2,242.36,371.54,240.86,371.33Z"/><path class="cls-128" d="M217.92,329.08a3.18,3.18,0,0,0,2.41-.72,16.47,16.47,0,0,1,5.6-2.19l2.91,3.28c-.82,1.49-2.37,1.92-3.77,2.53a3.11,3.11,0,0,0-1.21.62.83.83,0,0,1-.48.13c-1.52-1-2.9,0-4.29.36a13.9,13.9,0,0,0-2.26,1.09c0-.28.18-.7-.36-.73C217.16,332.07,218,330.74,217.92,329.08Z"/><path class="cls-119" d="M250.33,336.73a4.69,4.69,0,0,1,2.19,3.64c0,3.24-1.38,5.38-4,6.19-1,.38-1.94.73-2.91,0,2.36-.32,3.36-1.73,2.86-4.12-.07-.32-.37-.51-.17-1,.77-1.8,0-3.05-1.59-3.95C247.68,336.22,249,336.58,250.33,336.73Z"/><path class="cls-115" d="M221.93,346.56h-.36a6.75,6.75,0,0,1-4-5.46c.5-1.87,1.13-3.65,2.91-4.73a.47.47,0,0,1,.46.24c-.41.91-1.24,1.89-.71,2.81a13.44,13.44,0,0,0,2.82,4c.59.48,1.38.18,2.08.15A19.33,19.33,0,0,1,221.93,346.56Z"/><path class="cls-117" d="M223.75,332.73c.82-.9,2.1-.86,3.06-1.47a4.66,4.66,0,0,0,2-1.81c1.72.55,3,1.92,4.77,2.45a12.24,12.24,0,0,0,4.34.83,10.91,10.91,0,0,0-2.75,5.35c-.39,1.73,0,3.6-.9,5.21a4.42,4.42,0,0,0-4.37-4.73c.18-.49-.39-.76-.37-1.2A7.12,7.12,0,0,0,223.75,332.73Z"/><path class="cls-129" d="M229.57,337.46c.06.39.55.63.36,1.09.09,2,.08,4-1.09,5.83-1.15.83-2.08,2-3.64,2.19a4.16,4.16,0,0,1-3.28,0l3.28-2.91c2.2-.41,2.93-3.5,1.15-6-.24-.34-.68-.51-.79-1a2.42,2.42,0,0,1,2.94.22C228.84,337.2,229.09,337.56,229.57,337.46Z"/><path class="cls-130" d="M234.31,343.29c.28,0,.46-.21.39-.47-.64-2.23.75-4.22.77-6.41,0-1.42,1.42-2.59,2.48-3.68.79.28.41,1,.28,1.31-.64,1.71,0,3,1.18,4.15,0,1-.88,1.84-.73,2.91a3.06,3.06,0,0,0,0,2.55h-4.37Z"/><path class="cls-131" d="M241.23,348.75h-9.47l1.46-2.19h6.19C240.28,347.07,240.58,348.05,241.23,348.75Z"/><path class="cls-132" d="M239.41,346.56h-6.19c.34-1,1.24-1.75,1.09-2.91h4.37C238.52,344.72,239.38,345.54,239.41,346.56Z"/><path class="cls-121" d="M246.69,337.46c1.47,1,2.5,2.2,1.53,4.17-.25.51.34,1,.33,1.63,0,2.07-.82,3-3,3.3-1.82-.21-2.77-1.51-3.64-2.91.14-1.35-.39-2.78.37-4A4.08,4.08,0,0,1,246.69,337.46Z"/><path class="cls-37" d="M246.69,337.46c-3.41,0-4.73,1.33-4.73,4.75q0,.72,0,1.44c-1.82.09-2-2-3.28-2.55-.16-1.07.7-1.89.73-2.91,1.43-1,2.37-2.56,4-3.28a9.51,9.51,0,0,1,6.19.73l.73,1.09C249,336.57,247.72,336.29,246.69,337.46Z"/><path class="cls-133" d="M229.57,337.46c-.88,0-1.29-.9-2.05-1.06a2.36,2.36,0,0,0-2,.33c-1.55-.48-3.07-1.3-4.73-.36h-.36c.63-1.49,1-3.19,2.91-3.64h.36A7,7,0,0,1,229.57,337.46Z"/><path class="cls-134" d="M188.42,376.43c-.19-2.44.64-4.84.36-7.28-.22-.67.43-1.18.36-1.82h.36c0,.81-.09,1.65.73,2.19,0,.74-.6,1.4-.36,2.19,0,1.38-.6,2.7-.38,4.12C189.66,376.8,188.82,376.29,188.42,376.43Z"/><path class="cls-135" d="M190.24,369.51c-.83-.53-.73-1.38-.73-2.19v-.73c.62-.14.44-.78.71-1.15.15-.21.19-.4.37-.09.07.13,0,.33,0,.51Z"/><path class="cls-79" d="M161.11,366.23c-2.5.54-5,.49-7.51,1.71-2.29,1.12-5.08,1.41-7.59,2.28-.52.18-1,.6-1.66.38a28.68,28.68,0,0,1,16.75-5.1Z"/><path class="cls-136" d="M188.79,364h-.36c-1.26-1.17-2.83-.92-4.23-.67-1.74.31-3.52.35-5.24.78-.78-.68.75-.34.37-.84,2.74-.37,5.52-.38,8.22-1.08a6.61,6.61,0,0,1,1.62,0V363C188.44,363.12,188.92,363.69,188.79,364Z"/><path class="cls-137" d="M168.76,366.23h-.36c-.23-1-1.44-.69-1.82-1.46,1.59.06,3.13-.62,4.73-.36.85-.12,1.55,0,1.46,1.09-.47.83-1.24.14-1.82.36C170.16,365.64,169.5,366.18,168.76,366.23Z"/><path class="cls-138" d="M172.76,365.5c0-1-.57-1.26-1.46-1.09,1.29-.94,2.83-.15,4.27-.64,1.12-.38,2.5-.16,3.75-.46.09.58-.82.15-.73.73a.32.32,0,0,0-.36.36,3.64,3.64,0,0,0-2.94.73C174.57,365.78,173.62,365.45,172.76,365.5Z"/><path class="cls-139" d="M161.11,366.23v-.73l5.1-.73c.08.58-.31.9-.69,1.21C164,365.49,162.58,366.25,161.11,366.23Z"/><path class="cls-140" d="M165.84,365.87c.06-.39.55-.63.36-1.09h.36c.37.78,1.61.47,1.82,1.46h-2.55Z"/><path class="cls-141" d="M188.79,364c.15-.35-.37-.93.36-1.09-.14,1,.59.69,1.09.73a3.87,3.87,0,0,1-1.09,2.19C189.23,365.22,188.56,364.72,188.79,364Z"/><path class="cls-142" d="M178.22,364.41a.31.31,0,0,1,.36-.36c2.45.07,4.83-.63,7.27-.77a5.43,5.43,0,0,1,2.56.77,5.45,5.45,0,0,1-1.09,2.91,2.54,2.54,0,0,1-1.82-.36c-.12-1.39-1.54-.84-2.17-1.46a.91.91,0,0,1-.52-.14,2.92,2.92,0,0,0-2.7.07c-.57-.08-.94.57-1.53.43C178.43,365.15,179,364.57,178.22,364.41Z"/><path class="cls-143" d="M165.84,365.87v.36l-.73,1.46a11.6,11.6,0,0,0-5.1.73c0-.93.75-1.44,1.09-2.19A20.56,20.56,0,0,1,165.84,365.87Z"/><path class="cls-144" d="M160,368.41a11.28,11.28,0,0,1,5.1-.73,2,2,0,0,0-.36,1.46c-.28,0-.7-.18-.73.36-1.61-.27-3.13.56-4.73.36v-.73C159.19,368.56,160.11,369,160,368.41Z"/><path class="cls-145" d="M176.4,375.7v-.36a26.71,26.71,0,0,1,2.19-4.73v1.07a3.44,3.44,0,0,1-.05.8c-.55.93-.93,1.94-1.4,2.9C176.95,375.78,176.68,375.66,176.4,375.7Z"/><path class="cls-146" d="M178.59,371.69v-1.82a9.32,9.32,0,0,0,1.45-2.59.37.37,0,0,1,.23-.38c.21.1.51.06.59.37C179.8,368.59,179.77,370.44,178.59,371.69Z"/><path class="cls-147" d="M178.59,365.5l1.46-.36a3.18,3.18,0,0,1,.75,0c0,.7-.56,1.16-.75,1.78a10.23,10.23,0,0,0-1.39,0c-.25-.34.29-1-.43-1.13A.31.31,0,0,1,178.59,365.5Z"/><path class="cls-148" d="M178.59,367H180a6.77,6.77,0,0,1-1.46,2.91,6.16,6.16,0,0,1,0-1.23c.28-1.33-.48-1.44-1.47-1.32C177.46,366.55,178.12,367.13,178.59,367Z"/><path class="cls-149" d="M164.75,369.14a2,2,0,0,1,.36-1.46l2.73.85A6,6,0,0,1,164.75,369.14Z"/><path class="cls-150" d="M168.76,366.23c.74,0,1.4-.6,2.19-.36.07.94-1,1.23-1.16,2.13C169.61,367.26,168.59,367.1,168.76,366.23Z"/><path class="cls-151" d="M178.59,367c-.47.19-1.14-.43-1.46.36h-1.36c1-.61,1.5-1.39,2.46-1.46C179,366,178.43,366.6,178.59,367Z"/><path class="cls-152" d="M159.29,369.14v.73a.31.31,0,0,0-.36.36l-.66-.1A1.82,1.82,0,0,1,159.29,369.14Z"/><path class="cls-153" d="M178.59,371.69a18.27,18.27,0,0,0,2.19-4.73c.73.2,1.3-.5,2-.36h.53a3.57,3.57,0,0,0-1.75,1.94,37.32,37.32,0,0,1-3,5.71v-2.55Z"/><path class="cls-154" d="M178.59,372.42V375c-.79.64-1,1.65-1.41,2.48-.24.43-.46.39-.77.43.37-.73,0-1.46,0-2.19,1.3-.5,1.38-1.78,1.79-2.83C178.28,372.62,178.32,372.45,178.59,372.42Z"/><path class="cls-155" d="M183.32,366.59H183c-.18-.56.54-.9.36-1.46.64.62,2.07.06,2.19,1.46Z"/><path class="cls-156" d="M189.15,367.32c.08.65-.59,1.15-.36,1.82l-4,8.38c-.16-.15-.84.33-.5-.41q2.27-5,4.55-10.08a.21.21,0,0,1,.17,0A1.55,1.55,0,0,1,189.15,367.32Z"/><path class="cls-157" d="M242.32,420.13h-4.73c-.83-.47-.14-1.24-.36-1.82h3.59a.63.63,0,0,0,.54-.11C241.7,418.83,242,419.49,242.32,420.13Z"/><path class="cls-158" d="M226.33,440.26c-.13,1.34-.65,2.19-1.94,2.05-1-.11-1.88-.48-1.77-1.88s.7-1.76,1.94-1.75A1.55,1.55,0,0,1,226.33,440.26Z"/><path class="cls-159" d="M221,444.89c-.77.06-1.26-.18-1.26-1.07s.39-1.14,1.21-1.13,1.38.18,1.36,1.18S221.72,444.93,221,444.89Z"/><path class="cls-160" d="M242.32,420.13c-.19-.63-.8-1.09-.73-1.82h1.82c.86,3,2.68,5.46,4.09,8.14,2.11,4,4.39,7.91,6.47,11.93.49,1,1,1.9,1.6,2.81.26.41.42.89,0,1.05s-.88.45-1.28-.35c-1.36-2.68-2.89-5.26-4.34-7.89Q246.14,427.07,242.32,420.13Z"/><path class="cls-161" d="M246.33,431.74c0,1.87-.87,2.62-2.86,2.59a2.74,2.74,0,1,1,.29-5.46C245.61,428.91,246.37,429.75,246.33,431.74Z"/><path class="cls-162" d="M249.12,436.86c-.2.79-.61,1.77-1.83,1.82a1.86,1.86,0,0,1-1.93-2A1.53,1.53,0,0,1,247,435C248.37,435,248.92,435.48,249.12,436.86Z"/><path class="cls-163" d="M257.25,444.44c.05.73-.26,1.19-.75,1.13-.73-.09-.83-.9-1.06-1.45s.07-.66.66-.73C257.13,443.29,256.81,444.26,257.25,444.44Z"/><path class="cls-161" d="M244,441.24c-1.17.05-1.31-.5-1.37-1.34a1,1,0,0,1,1.14-1.14c.63.06,1.44.57,1.25,1.37C244.94,440.55,245.2,442,244,441.24Z"/><path class="cls-164" d="M241.23,418.31h-4a14.26,14.26,0,0,1-.36-4.37c.16-1.54,1.46-.27,2-.82.45.39-.21,1.13.45,1.46A10.64,10.64,0,0,1,241.23,418.31Z"/><path class="cls-165" d="M239,413.21c-.69.37-1.88-.79-2.19.73-1.09-.76.36-2.15-.73-2.91-.48-.78-1.23-.17-1.82-.36h-1.09c-.56-1.77,1.14-1.28,1.82-1.82.52-.14.86.34,1.34.39.89.1,2.11-.56,2.6.41.36.71.07,1.77.07,2.67C239,412.61,239,412.91,239,413.21Z"/><path class="cls-166" d="M234.31,410.66c.59.23,1.36-.46,1.82.36C235.54,410.8,234.77,411.49,234.31,410.66Z"/><path class="cls-167" d="M241.23,418.31a10.91,10.91,0,0,0-1.82-3.64v-9.1a.91.91,0,0,1,.73-1.09.31.31,0,0,0,.36.36c0,2.63,0,5.25,0,7.88,0,.41-.33,1,.35,1.23.41.58.43,1.39,1.09,1.82,0,1,.81,1.66,1.09,2.55h-1.82Z"/><path class="cls-166" d="M239.41,405.56v9.1c-.8-.32-.17-1-.36-1.46,0-.3,0-.6,0-.89,0-1,.35-2.11-.08-2.8s-1.73-.23-2.64-.28c-.48,0-.76-.6-1.29-.4l1.82-1.46C237.89,407,238.13,405.57,239.41,405.56Z"/><path class="cls-168" d="M240.86,413.94c-.7-.13-.35-.66-.35-1,0-2.7,0-5.4,0-8.1.86,1.52.11,3.17.36,4.73Z"/><path class="cls-169" d="M232.85,313.06c.74,0,1.4-.6,2.19-.36,4,0,6.64,1.7,7.66,4.8,1.23,3.75-.72,6.62-4,7.91-.53.21-1.15.64-1.83.39a8.58,8.58,0,0,1-7.28-5.83A7.27,7.27,0,0,1,232.85,313.06Z"/><path class="cls-169" d="M213.55,328.36c-1.25.89-2.18,2.26-4,2.22a3,3,0,0,1-2.77-1.21c-.95-1.54-2.32-2.95-2-5,.79-2.73,1.58-3.28,4.73-3.28C212.45,322.63,214,324.92,213.55,328.36Z"/><path class="cls-170" d="M240.86,371.33c1.94,0,1.83,1.35,1.82,2.64s-.56,2.33-2.18,2.1V375q1.71-1.27,0-2.55C240.65,372.07,240.13,371.49,240.86,371.33Z"/><path class="cls-171" d="M220.83,336.37c1.66-.9,3.19-.16,4.73.36,1.17,1.57,2.45,3.1,1.47,5.27-.37.83-.82,1.55-1.84,1.65-2.23.49-2.82-1.26-4-2.56C219.67,339.4,220.4,338,220.83,336.37Z"/><path class="cls-172" d="M183.32,365.14l-.36,1.46-2.19.36H180c.19-.63.8-1.09.73-1.82h2.55Z"/><path class="cls-173" d="M183,365.14H180A2.62,2.62,0,0,1,183,365.14Z"/><path class="cls-174" d="M226,440.18c-.14,1-.68,1.7-1.48,1.74a1.5,1.5,0,0,1-1.43-1.42c-.08-.89.5-1.39,1.42-1.45S225.63,439.68,226,440.18Z"/><path class="cls-175" d="M220.7,443.11c.78-.14,1.11.23,1.19.6s-.29.75-.74.82a.82.82,0,0,1-1-.73C220.08,443.34,220.58,443.21,220.7,443.11Z"/><path class="cls-101" d="M246,431.57a2.22,2.22,0,0,1-2.37,2.4c-1,0-2.57-1.48-2.33-2.42.29-1.12.85-2.23,2.27-2.31A2.19,2.19,0,0,1,246,431.57Z"/><path class="cls-101" d="M248.51,436.7c.08.9-.29,1.29-1.23,1.29s-1.36-.38-1.34-1.39.5-1.18,1.34-1.2S248.6,435.8,248.51,436.7Z"/><path class="cls-176" d="M244.49,440.11c.05.48.06.81-.49.78a.89.89,0,0,1-1-1c0-.54.32-.49.69-.5C244.29,439.41,244.72,439.48,244.49,440.11Z"/></g></g></svg>